<svg width="40" height="40" viewBox="0 0 40 40" fill="none" xmlns="http://www.w3.org/2000/svg">
<circle cx="20" cy="20" r="20" fill="#2C9585"/>
<g clip-path="url(#clip0_1_160)">
<path d="M22.8 21.6H22.168L21.944 21.384C22.7281 20.472 23.2 19.288 23.2 18C23.2 15.128 20.872 12.8 18 12.8C15.128 12.8 12.8 15.128 12.8 18C12.8 20.872 15.128 23.2 18 23.2C19.288 23.2 20.472 22.728 21.384 21.944L21.6 22.168V22.8L25.6 26.792L26.7921 25.6L22.8 21.6ZM18 21.6C16.008 21.6 14.4 19.992 14.4 18C14.4 16.008 16.008 14.4 18 14.4C19.992 14.4 21.6 16.008 21.6 18C21.6 19.992 19.992 21.6 18 21.6Z" fill="white"/>
</g>
<defs>
<clipPath id="clip0_1_160">
<rect width="19.2" height="19.2" fill="white" transform="translate(10.4 10.4)"/>
</clipPath>
</defs>
</svg>
